<svg xmlns="http://www.w3.org/2000/svg" viewBox="0 0 100 100" width="50" height="50">
  <defs>
    <linearGradient id="jGradient2" x1="0%" y1="0%" x2="100%" y2="0%">
      <stop offset="0%" style="stop-color:#ffdb33;stop-opacity:1" />
      <stop offset="50%" style="stop-color:#ffd203;stop-opacity:1" />
      <stop offset="100%" style="stop-color:#cc9f00;stop-opacity:1" />
    </linearGradient>
  </defs>

  <!-- Shadow -->
  <rect x="38" y="23" width="22" height="12" fill="#d4d4d4" opacity="0.4" transform="translate(4, 4)"/>
  <rect x="48" y="35" width="12" height="32" fill="#d4d4d4" opacity="0.4" transform="translate(4, 4)"/>
  <path d="M 48 67 L 48 75 Q 48 83 38 83 Q 28 83 28 75 L 28 68 L 38 68 L 38 75 Q 38 78 38 78 L 48 78 Z"
        fill="#d4d4d4" opacity="0.4" transform="translate(4, 4)"/>

  <!-- Top horizontal bar -->
  <rect x="35" y="20" width="22" height="12" fill="url(#jGradient2)" stroke="#cc9f00" stroke-width="1"/>

  <!-- Vertical stem -->
  <rect x="45" y="32" width="12" height="32" fill="url(#jGradient2)" stroke="#cc9f00" stroke-width="1"/>

  <!-- Bottom curve -->
  <path d="M 45 64 L 45 72 Q 45 80 35 80 Q 25 80 25 72 L 25 65 L 35 65 L 35 72 Q 35 75 35 75 L 45 75 Z"
        fill="url(#jGradient2)" stroke="#cc9f00" stroke-width="1"/>

  <!-- Highlight strokes for 3D effect -->
  <rect x="36" y="21" width="20" height="2" fill="#fff9cc" opacity="0.7"/>
  <rect x="46" y="33" width="2" height="30" fill="#fff9cc" opacity="0.6"/>
</svg>
